<?xml version="1.0" encoding="UTF-8" standalone="no"?>
<svg
   xmlns:vectornator="http://vectornator.io"
   xmlns:dc="http://purl.org/dc/elements/1.1/"
   xmlns:cc="http://creativecommons.org/ns#"
   xmlns:rdf="http://www.w3.org/1999/02/22-rdf-syntax-ns#"
   xmlns:svg="http://www.w3.org/2000/svg"
   xmlns="http://www.w3.org/2000/svg"
   xmlns:sodipodi="http://sodipodi.sourceforge.net/DTD/sodipodi-0.dtd"
   xmlns:inkscape="http://www.inkscape.org/namespaces/inkscape"
   style="clip-rule:evenodd;fill-rule:evenodd;stroke-linecap:round;stroke-linejoin:round"
   xml:space="preserve"
   version="1.1"
   viewBox="0 0 936.92749 332.659"
   id="svg10817"
   sodipodi:docname="genuntwist.svg"
   width="936.92749"
   height="332.659"
   inkscape:version="1.0.1 (c497b03c, 2020-09-10)"><sodipodi:namedview
   pagecolor="#ffffff"
   bordercolor="#666666"
   borderopacity="1"
   objecttolerance="10"
   gridtolerance="10"
   guidetolerance="10"
   inkscape:pageopacity="0"
   inkscape:pageshadow="2"
   inkscape:window-width="1435"
   inkscape:window-height="764"
   id="namedview10819"
   showgrid="false"
   inkscape:zoom="0.79550693"
   inkscape:cx="450.82213"
   inkscape:cy="252.60348"
   inkscape:window-x="0"
   inkscape:window-y="23"
   inkscape:window-maximized="0"
   inkscape:current-layer="svg10817" />
<metadata
   id="metadata10476">
<vectornator:setting
   key="DimensionsVisible"
   value="1" />
<vectornator:setting
   key="SnapToGrid"
   value="0" />
<vectornator:setting
   key="SnapToPoints"
   value="0" />
<vectornator:setting
   key="GuidesVisible"
   value="1" />
<vectornator:setting
   key="RulersVisible"
   value="1" />
<vectornator:setting
   key="SnapToEdges"
   value="0" />
<vectornator:setting
   key="DisplayWhiteBackground"
   value="0" />
<vectornator:setting
   key="SnapToGuides"
   value="1" />
<vectornator:setting
   key="GridSpacing"
   value="36" />
<vectornator:setting
   key="Units"
   value="Pixels" />
<vectornator:setting
   key="DynamicGuides"
   value="0" />
<vectornator:setting
   key="New"
   value="1" />
<rdf:RDF><cc:Work
     rdf:about=""><dc:format>image/svg+xml</dc:format><dc:type
       rdf:resource="http://purl.org/dc/dcmitype/StillImage" /><dc:title></dc:title></cc:Work></rdf:RDF></metadata>
<defs
   id="defs10478">




































































































</defs>
<path
   stroke="#a3c65b"
   stroke-width="3"
   d="m 312.79947,321.726 c 0.808,-50.354 -4.539,-93.959 7.217,-109.818 26.792,-36.144 167.736,-8.174 169.46,-84.86 0.621,-27.599 -12.552,-42.281 -25.961,-51.403"
   fill="#000000"
   stroke-linecap="round"
   fill-opacity="0.0128444"
   opacity="0.954751"
   stroke-linejoin="round"
   id="path10480" /><path
   stroke="#a3c65b"
   stroke-width="3"
   d="m 450.73247,68.208 c -3.095,-1.603 -5.916,-3 -8.234,-4.315"
   fill="#000000"
   stroke-linecap="round"
   fill-opacity="0.0128444"
   opacity="0.954751"
   stroke-linejoin="round"
   id="path10482" /><path
   stroke="#d46767"
   stroke-width="3"
   d="m 342.83047,101.165 c -10.794,-0.966 -18.413,-3.247 -20.187,-7.804 -1.805,-4.64 1.118,-10.171 5.123,-12.398 28.905,-16.071 218.246,-20.495 215.456,31.833 -0.405,7.601 -3.57,14.022 -8.844,19.439"
   fill="#000000"
   stroke-linecap="round"
   fill-opacity="0.0128444"
   opacity="0.954751"
   stroke-linejoin="round"
   id="path10484" /><path
   stroke="#a3c65b"
   stroke-width="3"
   d="m 37.961469,284.349 -0.14,40.583"
   fill="#000000"
   stroke-linecap="round"
   fill-opacity="0.0128444"
   opacity="0.954751"
   stroke-linejoin="round"
   id="path10486" /><g
   opacity="0.954751"
   id="g10496"
   transform="translate(-78.862531,-272.872)">
<path
   d="m 139.403,557.078 -0.14,40.583"
   fill="#000000"
   fill-opacity="0.0128444"
   id="path10488" />
<g
   id="g10494">
<path
   stroke-linecap="round"
   stroke-width="3"
   stroke="#a3c65b"
   d="m 139.3,587.158 c 0.01,-3.009 0.103,-30.08 0.103,-30.08"
   fill="none"
   stroke-linejoin="round"
   id="path10490" />
<path
   d="m 139.309,584.533 -10.473,-7.911 10.427,21.036 10.573,-20.964 z"
   fill="#a3c65b"
   id="path10492" />
</g>
</g><path
   stroke="#a3c65b"
   stroke-width="3"
   d="m 125.72347,5.368 -0.122,146.047 -0.012,14.591 -0.002,2.226"
   fill="#000000"
   stroke-linecap="round"
   fill-opacity="0.0128444"
   opacity="0.954751"
   stroke-linejoin="round"
   id="path10498" /><path
   stroke="#a3c65b"
   stroke-width="3"
   d="m 55.870469,36.854 c -4.448,-1.349 -8.771,-2.765 -12.888,-4.331"
   fill="#000000"
   stroke-linecap="round"
   fill-opacity="0.0128444"
   opacity="0.954751"
   stroke-linejoin="round"
   id="path10500" /><path
   stroke="#a3c65b"
   stroke-width="3"
   d="m 2.028569,320.917 c 0.8086,-50.353 -4.5381,-93.959 7.2177,-109.818 26.7912,-36.143 167.736201,-8.174 169.460201,-84.859 0.982,-43.702 -32.619,-55.015 -46.979,-63.155"
   fill="#000000"
   stroke-linecap="round"
   fill-opacity="0.0128444"
   opacity="0.954751"
   stroke-linejoin="round"
   id="path10502" /><path
   stroke="#a3c65b"
   stroke-width="3"
   d="M 100.60247,50.924 C 89.782469,46.43 78.070469,43.213 66.712469,40.003"
   fill="#000000"
   stroke-linecap="round"
   fill-opacity="0.0128444"
   opacity="0.954751"
   stroke-linejoin="round"
   id="path10504" /><path
   stroke="#a3c65b"
   stroke-width="3"
   d="m 122.10447,60.06 c -7.95,-3.722 -8.372,-2.835 -13.076,-5.25"
   fill="#000000"
   stroke-linecap="round"
   fill-opacity="0.0128444"
   opacity="0.954751"
   stroke-linejoin="round"
   id="path10506" /><g
   opacity="0.954751"
   id="g10516"
   transform="translate(-78.862531,-272.872)">
<path
   d="m 266.4,522.389 79.692,-0.769"
   fill="#000000"
   fill-opacity="0.0128444"
   id="path10508" />
<g
   id="g10514">
<path
   stroke-linecap="round"
   stroke-width="1.7"
   stroke="#000000"
   d="m 343.899,521.641 c -5.701,0.055 -77.499,0.748 -77.499,0.748"
   fill="none"
   stroke-linejoin="round"
   id="path10510" />
<path
   d="m 339.11,527.445 6.184,-5.16 0.797,-0.665 -0.81,-0.651 -6.282,-5.039 c -0.366,-0.294 -0.901,-0.235 -1.195,0.131 -0.294,0.366 -0.235,0.901 0.131,1.195 l 6.282,5.04 -0.012,-1.316 -6.184,5.16 c -0.361,0.3 -0.409,0.836 -0.108,1.197 0.3,0.36 0.836,0.409 1.197,0.108 z"
   fill="#000000"
   id="path10512" />
</g>
</g><path
   stroke="#a3c65b"
   stroke-width="3"
   d="M 27.817469,232.934 H 134.25947 v 50.884 H 27.817469 Z"
   fill="#000000"
   stroke-linecap="round"
   fill-opacity="0.0128444"
   opacity="0.954751"
   stroke-linejoin="round"
   id="path10518" /><path
   stroke="#a3c65b"
   stroke-width="3"
   d="m 37.961469,284.349 -0.14,40.583"
   fill="#000000"
   stroke-linecap="round"
   fill-opacity="0.0128444"
   opacity="0.954751"
   stroke-linejoin="round"
   id="path10520" /><g
   opacity="0.954751"
   id="g10530"
   transform="translate(-78.862531,-272.872)">
<path
   d="m 139.403,557.078 -0.14,40.583"
   fill="#000000"
   fill-opacity="0.0128444"
   id="path10522" />
<g
   id="g10528">
<path
   stroke-linecap="round"
   stroke-width="3"
   stroke="#a3c65b"
   d="m 139.3,587.158 c 0.01,-3.009 0.103,-30.08 0.103,-30.08"
   fill="none"
   stroke-linejoin="round"
   id="path10524" />
<path
   d="m 139.309,584.533 -10.473,-7.911 10.427,21.036 10.573,-20.964 z"
   fill="#a3c65b"
   id="path10526" />
</g>
</g><path
   stroke="#a3c65b"
   stroke-width="3"
   d="m 105.18547,284.064 -0.181,40.583"
   fill="#000000"
   stroke-linecap="round"
   fill-opacity="0.0128444"
   opacity="0.954751"
   stroke-linejoin="round"
   id="path10532" /><g
   opacity="0.954751"
   id="g10542"
   transform="translate(-78.862531,-272.872)">
<path
   d="m 204.744,556.936 -0.181,40.583"
   fill="#000000"
   fill-opacity="0.0128444"
   id="path10534" />
<g
   id="g10540">
<path
   stroke-linecap="round"
   stroke-width="3"
   stroke="#a3c65b"
   d="m 204.61,587.016 c 0.013,-3.009 0.134,-30.08 0.134,-30.08"
   fill="none"
   stroke-linejoin="round"
   id="path10536" />
<path
   d="m 204.621,584.391 -10.464,-7.922 10.406,21.047 10.593,-20.953 z"
   fill="#a3c65b"
   id="path10538" />
</g>
</g><path
   stroke="#a3c65b"
   stroke-width="3"
   d="m 74.547469,305.176 c 0,-1.022 0.492,-1.851 1.099,-1.851 0.607,0 1.099,0.829 1.099,1.851 0,1.022 -0.492,1.85 -1.099,1.85 -0.607,0 -1.099,-0.828 -1.099,-1.85 z"
   fill="#a3c65b"
   stroke-linecap="round"
   opacity="0.954751"
   stroke-linejoin="round"
   id="path10544" /><path
   stroke="#a3c65b"
   stroke-width="3"
   d="m 82.637469,305.238 c 0,-1.022 0.492,-1.851 1.099,-1.851 0.607,0 1.099,0.829 1.099,1.851 0,1.022 -0.492,1.851 -1.099,1.851 -0.607,0 -1.099,-0.829 -1.099,-1.851 z"
   fill="#a3c65b"
   stroke-linecap="round"
   opacity="0.954751"
   stroke-linejoin="round"
   id="path10546" /><path
   stroke="#a3c65b"
   stroke-width="3"
   d="m 90.595469,305.238 c 0,-1.022 0.492,-1.851 1.099,-1.851 0.607,0 1.099,0.829 1.099,1.851 0,1.022 -0.492,1.851 -1.099,1.851 -0.607,0 -1.099,-0.829 -1.099,-1.851 z"
   fill="#a3c65b"
   stroke-linecap="round"
   opacity="0.954751"
   stroke-linejoin="round"
   id="path10548" /><g
   opacity="0.954751"
   id="g10558"
   transform="translate(-78.862531,-272.872)">
<path
   d="m 116.666,279.754 -0.103,159.111 -0.01,15.016 -10e-4,2.29"
   fill="#000000"
   fill-opacity="0.0128444"
   id="path10550" />
<g
   id="g10556">
<path
   stroke-linecap="round"
   stroke-width="3"
   stroke="#a3c65b"
   d="m 116.659,290.263 c -0.009,14.432 -0.096,148.602 -0.096,148.602 l -0.01,15.016 -10e-4,2.29"
   fill="none"
   stroke-linejoin="round"
   id="path10552" />
<path
   d="m 116.658,292.888 10.495,7.882 -10.487,-21.007 -10.513,20.994 z"
   fill="#a3c65b"
   id="path10554" />
</g>
</g><path
   stroke="#a3c65b"
   stroke-width="3"
   d="m 37.677469,206.761 0.112,25.81"
   fill="#000000"
   stroke-linecap="round"
   fill-opacity="0.0128444"
   opacity="0.954751"
   stroke-linejoin="round"
   id="path10560" /><path
   stroke="#a3c65b"
   stroke-width="3"
   d="m 60.383469,6.125 -0.103,157.827 -0.01,16.658 -0.002,2.373"
   fill="#000000"
   stroke-linecap="round"
   fill-opacity="0.0128444"
   opacity="0.954751"
   stroke-linejoin="round"
   id="path10562" /><path
   stroke="#a3c65b"
   stroke-width="3"
   d="m 60.258469,204.369 -0.002,2.967 -0.013,24.892"
   fill="#000000"
   stroke-linecap="round"
   fill-opacity="0.0128444"
   opacity="0.954751"
   stroke-linejoin="round"
   id="path10564" /><g
   opacity="0.954751"
   id="g10574"
   transform="translate(-78.862531,-272.872)">
<path
   d="m 183.891,278.24 -0.13,154.813 -0.011,13.492 -0.002,1.92"
   fill="#000000"
   fill-opacity="0.0128444"
   id="path10566" />
<g
   id="g10572">
<path
   stroke-linecap="round"
   stroke-width="3"
   stroke="#a3c65b"
   d="m 183.882,288.749 c -0.012,14.114 -0.121,144.304 -0.121,144.304 l -0.011,13.492 -0.002,1.92"
   fill="none"
   stroke-linejoin="round"
   id="path10568" />
<path
   d="m 183.88,291.374 10.493,7.884 -10.482,-21.009 -10.518,20.991 z"
   fill="#a3c65b"
   id="path10570" />
</g>
</g><path
   stroke="#a3c65b"
   stroke-width="3"
   d="m 104.86847,199.597 -0.021,34.301"
   fill="#000000"
   stroke-linecap="round"
   fill-opacity="0.0128444"
   opacity="0.954751"
   stroke-linejoin="round"
   id="path10576" /><path
   stroke="#a3c65b"
   stroke-width="3"
   d="m 125.72347,5.368 -0.122,146.047 -0.012,14.591 -0.002,2.226"
   fill="#000000"
   stroke-linecap="round"
   fill-opacity="0.0128444"
   opacity="0.954751"
   stroke-linejoin="round"
   id="path10578" /><path
   stroke="#a3c65b"
   stroke-width="3"
   d="m 125.57147,187.612 -0.029,46.286"
   fill="#000000"
   stroke-linecap="round"
   fill-opacity="0.0128444"
   opacity="0.954751"
   stroke-linejoin="round"
   id="path10580" /><path
   stroke="#a3c65b"
   stroke-width="3"
   d="M 100.60247,50.924 C 89.782469,46.43 78.070469,43.213 66.712469,40.003"
   fill="#000000"
   stroke-linecap="round"
   fill-opacity="0.0128444"
   opacity="0.954751"
   stroke-linejoin="round"
   id="path10582" /><path
   stroke="#a3c65b"
   stroke-width="3"
   d="m 55.870469,36.854 c -4.448,-1.349 -8.771,-2.765 -12.888,-4.331"
   fill="#000000"
   stroke-linecap="round"
   fill-opacity="0.0128444"
   opacity="0.954751"
   stroke-linejoin="round"
   id="path10584" /><path
   stroke="#a3c65b"
   stroke-width="3"
   d="m 32.517469,27.916 c -9.457,-4.879 -17.0687,-11.242 -21.4391,-20.511 -0.3127,-0.663 -0.6222,-1.322 -0.9283,-1.978"
   fill="#000000"
   stroke-linecap="round"
   fill-opacity="0.0128444"
   opacity="0.954751"
   stroke-linejoin="round"
   id="path10586" /><path
   stroke="#a3c65b"
   stroke-width="3"
   d="m 348.73147,285.157 -0.14,40.583"
   fill="#000000"
   stroke-linecap="round"
   fill-opacity="0.0128444"
   opacity="0.954751"
   stroke-linejoin="round"
   id="path10588" /><g
   opacity="0.954751"
   id="g10598"
   transform="translate(-78.862531,-272.872)">
<path
   d="m 450.174,557.887 -0.14,40.583"
   fill="#000000"
   fill-opacity="0.0128444"
   id="path10590" />
<g
   id="g10596">
<path
   stroke-linecap="round"
   stroke-width="3"
   stroke="#a3c65b"
   d="m 450.07,587.967 c 0.01,-3.009 0.104,-30.08 0.104,-30.08"
   fill="none"
   stroke-linejoin="round"
   id="path10592" />
<path
   d="m 450.079,585.342 -10.473,-7.912 10.428,21.037 10.572,-20.964 z"
   fill="#a3c65b"
   id="path10594" />
</g>
</g><path
   stroke="#a3c65b"
   stroke-width="3"
   d="m 437.13447,4.127 -0.072,58.547 -0.002,1.919 -0.001,0.29"
   fill="#000000"
   stroke-linecap="round"
   fill-opacity="0.0128444"
   opacity="0.954751"
   stroke-linejoin="round"
   id="path10600" /><path
   stroke="#a3c65b"
   stroke-width="3"
   d="m 436.41347,76.216 -0.002,1.696 -0.004,7.223 -0.025,39.52 -0.004,5.91"
   fill="#000000"
   stroke-linecap="round"
   fill-opacity="0.0128444"
   opacity="0.954751"
   stroke-linejoin="round"
   id="path10602" /><path
   stroke="#a3c65b"
   stroke-width="3"
   d="m 436.37247,140.52 -0.001,1.132 -0.147,30.842"
   fill="#000000"
   stroke-linecap="round"
   fill-opacity="0.0128444"
   opacity="0.954751"
   stroke-linejoin="round"
   id="path10604" /><path
   stroke="#a3c65b"
   stroke-width="3"
   d="m 366.64047,37.663 c -4.447,-1.35 -8.771,-2.766 -12.888,-4.331"
   fill="#000000"
   stroke-linecap="round"
   fill-opacity="0.0128444"
   opacity="0.954751"
   stroke-linejoin="round"
   id="path10606" /><path
   stroke="#a3c65b"
   stroke-width="3"
   d="m 409.83647,50.61 c -10.329,-4.033 -21.511,-6.919 -32.354,-9.799"
   fill="#000000"
   stroke-linecap="round"
   fill-opacity="0.0128444"
   opacity="0.954751"
   stroke-linejoin="round"
   id="path10608" /><path
   stroke="#a3c65b"
   stroke-width="3"
   d="m 432.02547,59.106 c -7.17,-3.499 -7.551,-2.665 -11.794,-4.936"
   fill="#000000"
   stroke-linecap="round"
   fill-opacity="0.0128444"
   opacity="0.954751"
   stroke-linejoin="round"
   id="path10610" /><path
   stroke="#a3c65b"
   stroke-width="3"
   d="m 338.58747,233.743 h 106.443 v 50.884 h -106.443 z"
   fill="#000000"
   stroke-linecap="round"
   fill-opacity="0.0128444"
   opacity="0.954751"
   stroke-linejoin="round"
   id="path10612" /><path
   stroke="#a3c65b"
   stroke-width="3"
   d="m 348.73147,285.157 -0.14,40.583"
   fill="#000000"
   stroke-linecap="round"
   fill-opacity="0.0128444"
   opacity="0.954751"
   stroke-linejoin="round"
   id="path10614" /><g
   opacity="0.954751"
   id="g10624"
   transform="translate(-78.862531,-272.872)">
<path
   d="m 450.174,557.887 -0.14,40.583"
   fill="#000000"
   fill-opacity="0.0128444"
   id="path10616" />
<g
   id="g10622">
<path
   stroke-linecap="round"
   stroke-width="3"
   stroke="#a3c65b"
   d="m 450.07,587.967 c 0.01,-3.009 0.104,-30.08 0.104,-30.08"
   fill="none"
   stroke-linejoin="round"
   id="path10618" />
<path
   d="m 450.079,585.342 -10.473,-7.912 10.428,21.037 10.572,-20.964 z"
   fill="#a3c65b"
   id="path10620" />
</g>
</g><path
   stroke="#a3c65b"
   stroke-width="3"
   d="m 415.95647,284.872 -0.181,40.584"
   fill="#000000"
   stroke-linecap="round"
   fill-opacity="0.0128444"
   opacity="0.954751"
   stroke-linejoin="round"
   id="path10626" /><g
   opacity="0.954751"
   id="g10636"
   transform="translate(-78.862531,-272.872)">
<path
   d="m 515.514,557.744 -0.181,40.584"
   fill="#000000"
   fill-opacity="0.0128444"
   id="path10628" />
<g
   id="g10634">
<path
   stroke-linecap="round"
   stroke-width="3"
   stroke="#a3c65b"
   d="m 515.38,587.824 c 0.014,-3.008 0.134,-30.08 0.134,-30.08"
   fill="none"
   stroke-linejoin="round"
   id="path10630" />
<path
   d="m 515.392,585.199 -10.465,-7.922 10.406,21.047 10.594,-20.953 z"
   fill="#a3c65b"
   id="path10632" />
</g>
</g><path
   stroke="#a3c65b"
   stroke-width="3"
   d="m 385.31747,305.984 c 0,-1.022 0.492,-1.85 1.099,-1.85 0.607,0 1.099,0.828 1.099,1.85 0,1.022 -0.492,1.851 -1.099,1.851 -0.607,0 -1.099,-0.829 -1.099,-1.851 z"
   fill="#a3c65b"
   stroke-linecap="round"
   opacity="0.954751"
   stroke-linejoin="round"
   id="path10638" /><path
   stroke="#a3c65b"
   stroke-width="3"
   d="m 393.40747,306.046 c 0,-1.022 0.492,-1.85 1.099,-1.85 0.607,0 1.099,0.828 1.099,1.85 0,1.023 -0.492,1.851 -1.099,1.851 -0.607,0 -1.099,-0.828 -1.099,-1.851 z"
   fill="#a3c65b"
   stroke-linecap="round"
   opacity="0.954751"
   stroke-linejoin="round"
   id="path10640" /><path
   stroke="#a3c65b"
   stroke-width="3"
   d="m 401.36647,306.046 c 0,-1.022 0.492,-1.85 1.099,-1.85 0.607,0 1.099,0.828 1.099,1.85 0,1.023 -0.492,1.851 -1.099,1.851 -0.607,0 -1.099,-0.828 -1.099,-1.851 z"
   fill="#a3c65b"
   stroke-linecap="round"
   opacity="0.954751"
   stroke-linejoin="round"
   id="path10642" /><g
   opacity="0.954751"
   id="g10652"
   transform="translate(-78.862531,-272.872)">
<path
   d="m 427.437,278.04 -0.057,59.504"
   fill="#000000"
   fill-opacity="0.0128444"
   id="path10644" />
<g
   id="g10650">
<path
   stroke-linecap="round"
   stroke-width="3"
   stroke="#a3c65b"
   d="m 427.427,288.543 c -0.005,5.418 -0.047,49.001 -0.047,49.001"
   fill="none"
   stroke-linejoin="round"
   id="path10646" />
<path
   d="m 427.425,291.168 10.492,7.885 -10.48,-21.01 -10.52,20.99 z"
   fill="#a3c65b"
   id="path10648" />
</g>
</g><path
   stroke="#a3c65b"
   stroke-width="3"
   d="m 348.51147,80.887 -0.004,8.526 -0.022,39.494 -0.003,5.592"
   fill="#000000"
   stroke-linecap="round"
   fill-opacity="0.0128444"
   opacity="0.954751"
   stroke-linejoin="round"
   id="path10654" /><path
   stroke="#a3c65b"
   stroke-width="3"
   d="m 348.47747,146.602 -0.007,14.462 -0.009,19.994 -0.002,3.049"
   fill="#000000"
   stroke-linecap="round"
   fill-opacity="0.0128444"
   opacity="0.954751"
   stroke-linejoin="round"
   id="path10656" /><path
   stroke="#a3c65b"
   stroke-width="3"
   d="m 348.44847,207.569 -0.014,26.1"
   fill="#000000"
   stroke-linecap="round"
   fill-opacity="0.0128444"
   opacity="0.954751"
   stroke-linejoin="round"
   id="path10658" /><path
   stroke="#a3c65b"
   stroke-width="3"
   d="m 371.31847,4.648 -0.056,58.369"
   fill="#000000"
   stroke-linecap="round"
   fill-opacity="0.0128444"
   opacity="0.954751"
   stroke-linejoin="round"
   id="path10660" /><path
   stroke="#a3c65b"
   stroke-width="3"
   d="m 371.08847,78.613 -10e-4,1.462 -0.022,46.577 -0.003,6.898"
   fill="#000000"
   stroke-linecap="round"
   fill-opacity="0.0128444"
   opacity="0.954751"
   stroke-linejoin="round"
   id="path10662" /><path
   stroke="#a3c65b"
   stroke-width="3"
   d="m 371.05747,145.48 -0.006,12.867 -0.011,22.18 -0.002,3.16"
   fill="#000000"
   stroke-linecap="round"
   fill-opacity="0.0128444"
   opacity="0.954751"
   stroke-linejoin="round"
   id="path10664" /><path
   stroke="#a3c65b"
   stroke-width="3"
   d="m 371.02847,205.177 -0.002,2.825 -0.013,23.692"
   fill="#000000"
   stroke-linecap="round"
   fill-opacity="0.0128444"
   opacity="0.954751"
   stroke-linejoin="round"
   id="path10666" /><g
   opacity="0.954751"
   id="g10676"
   transform="translate(-78.862531,-272.872)">
<path
   d="m 495.151,276.999 -0.072,58.561"
   fill="#000000"
   fill-opacity="0.0128444"
   id="path10668" />
<g
   id="g10674">
<path
   stroke-linecap="round"
   stroke-width="3"
   stroke="#a3c65b"
   d="m 495.138,287.501 c -0.006,5.306 -0.059,48.059 -0.059,48.059"
   fill="none"
   stroke-linejoin="round"
   id="path10670" />
<path
   d="m 495.135,290.126 10.49,7.888 -10.474,-21.013 -10.526,20.987 z"
   fill="#a3c65b"
   id="path10672" />
</g>
</g><path
   stroke="#a3c65b"
   stroke-width="3"
   d="m 415.71747,76.721 -0.005,6.525 -0.027,43.203 -0.004,6.498"
   fill="#000000"
   stroke-linecap="round"
   fill-opacity="0.0128444"
   opacity="0.954751"
   stroke-linejoin="round"
   id="path10678" /><path
   stroke="#a3c65b"
   stroke-width="3"
   d="m 415.67547,142.926 -0.007,10.399 -0.011,17.965 -0.002,2.556"
   fill="#000000"
   stroke-linecap="round"
   fill-opacity="0.0128444"
   opacity="0.954751"
   stroke-linejoin="round"
   id="path10680" /><path
   stroke="#a3c65b"
   stroke-width="3"
   d="m 415.63947,194.679 -0.022,38.197"
   fill="#000000"
   stroke-linecap="round"
   fill-opacity="0.0128444"
   opacity="0.954751"
   stroke-linejoin="round"
   id="path10682" /><path
   stroke="#a3c65b"
   stroke-width="3"
   d="m 436.34247,188.421 -0.029,44.462"
   fill="#000000"
   stroke-linecap="round"
   fill-opacity="0.0128444"
   opacity="0.954751"
   stroke-linejoin="round"
   id="path10684" /><path
   stroke="#a3c65b"
   stroke-width="3"
   d="m 366.64047,37.663 c -4.447,-1.35 -8.771,-2.766 -12.888,-4.331"
   fill="#000000"
   stroke-linecap="round"
   fill-opacity="0.0128444"
   opacity="0.954751"
   stroke-linejoin="round"
   id="path10686" /><path
   stroke="#a3c65b"
   stroke-width="3"
   d="m 343.28847,28.724 c -9.14,-4.715 -16.556,-10.816 -20.988,-19.586"
   fill="#000000"
   stroke-linecap="round"
   fill-opacity="0.0128444"
   opacity="0.954751"
   stroke-linejoin="round"
   id="path10688" /><path
   stroke="#d46767"
   stroke-width="3"
   d="m 458.36747,104.377 c 0,-3.781 -6.823,-5.301 -17.414,-5.657"
   fill="#000000"
   stroke-linecap="round"
   fill-opacity="0.0128444"
   opacity="0.954751"
   stroke-linejoin="round"
   id="path10690" /><path
   stroke="#d46767"
   stroke-width="3"
   d="m 431.19347,98.67 c -3.241,0.055 -6.679,0.167 -10.259,0.318"
   fill="#000000"
   stroke-linecap="round"
   fill-opacity="0.0128444"
   opacity="0.954751"
   stroke-linejoin="round"
   id="path10692" /><path
   stroke="#d46767"
   stroke-width="3"
   d="m 410.53947,99.497 c -11.433,0.62 -23.703,1.424 -35.351,1.887"
   fill="#000000"
   stroke-linecap="round"
   fill-opacity="0.0128444"
   opacity="0.954751"
   stroke-linejoin="round"
   id="path10694" /><path
   stroke="#d46767"
   stroke-width="3"
   d="m 365.06247,101.692 c -4.206,0.082 -8.262,0.093 -12.09,0.006"
   fill="#000000"
   stroke-linecap="round"
   fill-opacity="0.0128444"
   opacity="0.954751"
   stroke-linejoin="round"
   id="path10696" /><path
   stroke="#d46767"
   stroke-width="3"
   d="m 526.37347,138.735 c -9.851,6.463 -23.338,11.082 -38.631,14.36"
   fill="#000000"
   stroke-linecap="round"
   fill-opacity="0.0128444"
   opacity="0.954751"
   stroke-linejoin="round"
   id="path10698" /><path
   stroke="#d46767"
   stroke-width="3"
   d="m 473.38247,155.721 c -9.722,1.505 -19.895,2.582 -30.123,3.34"
   fill="#000000"
   stroke-linecap="round"
   fill-opacity="0.0128444"
   opacity="0.954751"
   stroke-linejoin="round"
   id="path10700" /><path
   stroke="#d46767"
   stroke-width="3"
   d="m 432.03447,159.77 c -3.548,0.187 -7.086,0.341 -10.596,0.465"
   fill="#000000"
   stroke-linecap="round"
   fill-opacity="0.0128444"
   opacity="0.954751"
   stroke-linejoin="round"
   id="path10702" /><path
   stroke="#d46767"
   stroke-width="3"
   d="m 410.02247,160.544 c -12.141,0.231 -23.716,0.159 -33.993,-0.017"
   fill="#000000"
   stroke-linecap="round"
   fill-opacity="0.0128444"
   opacity="0.954751"
   stroke-linejoin="round"
   id="path10704" /><path
   stroke="#d46767"
   stroke-width="3"
   d="m 366.30147,160.326 c -4.574,-0.109 -8.779,-0.227 -12.529,-0.33"
   fill="#000000"
   stroke-linecap="round"
   fill-opacity="0.0128444"
   opacity="0.954751"
   stroke-linejoin="round"
   id="path10706" /><path
   stroke="#d46767"
   stroke-width="3"
   d="m 343.23047,159.739 c -1.264,-0.02 -2.404,-0.032 -3.41,-0.032 -3.68,0 -20.598,-3.308 -19.394,-9.113 4.369,-21.052 137.462,-4.517 136.737,-23.667"
   fill="#000000"
   stroke-linecap="round"
   fill-opacity="0.0128444"
   opacity="0.954751"
   stroke-linejoin="round"
   id="path10708" /><path
   stroke="#4da3c4"
   stroke-width="3"
   d="m 523.62347,96.785 c -15.661,19.871 17.67,66.312 44.776,35.947 29.12,-32.621 -13.252,-74.349 -35.54,-49.343"
   fill="#000000"
   stroke-linecap="round"
   fill-opacity="0.0128444"
   opacity="0.954751"
   stroke-linejoin="round"
   id="path10710" /><path
   stroke="#d46767"
   stroke-width="3"
   d="m 457.77147,111.177 c -0.042,-0.023 -0.084,-0.046 -0.126,-0.07"
   fill="#000000"
   stroke-linecap="round"
   fill-opacity="0.0128444"
   opacity="0.954751"
   stroke-linejoin="round"
   id="path10712" /><path
   stroke="#d46767"
   stroke-width="3"
   d="m 457.96147,116.029 c -0.063,-0.024 -0.126,-0.047 -0.19,-0.07"
   fill="#000000"
   stroke-linecap="round"
   fill-opacity="0.0128444"
   opacity="0.954751"
   stroke-linejoin="round"
   id="path10714" /><path
   stroke="#d46767"
   stroke-width="3"
   d="m 457.64547,120.951 c -0.021,-0.047 -0.042,-0.094 -0.063,-0.141"
   fill="#000000"
   stroke-linecap="round"
   fill-opacity="0.0128444"
   opacity="0.954751"
   stroke-linejoin="round"
   id="path10716" /><g
   opacity="0.954751"
   id="g10726"
   transform="translate(-78.862531,-272.872)">
<path
   d="m 515.568,357.268 c 0,0 -95.115,5.074 -109.436,5.074"
   fill="#000000"
   fill-opacity="0.0128444"
   id="path10718" />
<g
   id="g10724">
<path
   stroke-linecap="round"
   stroke-width="1.5"
   stroke="#a993d0"
   d="m 411.387,362.239 c 24.452,-0.718 104.181,-4.971 104.181,-4.971"
   fill="none"
   stroke-linejoin="round"
   id="path10720" />
<path
   d="m 412.699,362.214 3.834,-5.326 -10.395,5.454 10.6,5.044 z"
   fill="#a993d0"
   id="path10722" />
</g>
</g><path
   stroke="#a993d0"
   stroke-width="6"
   d="m 348.45547,89.47 c -0.097,0.044 -0.195,0.089 -0.292,0.133"
   fill="#000000"
   stroke-linecap="round"
   fill-opacity="0.0128444"
   opacity="0.954751"
   stroke-linejoin="round"
   id="path10728" /><path
   stroke="#a993d0"
   stroke-width="6"
   d="m 370.95647,87.868 c -0.098,-0.045 -0.195,-0.089 -0.292,-0.134"
   fill="#000000"
   stroke-linecap="round"
   fill-opacity="0.0128444"
   opacity="0.954751"
   stroke-linejoin="round"
   id="path10730" /><path
   stroke="#a993d0"
   stroke-width="6"
   d="m 415.37347,85.999 0.293,-0.134 0.438,-0.133 v 0.267 l -0.292,0.133 v 0"
   fill="#000000"
   stroke-linecap="round"
   fill-opacity="0.0128444"
   opacity="0.954751"
   stroke-linejoin="round"
   id="path10732" /><path
   stroke="#a993d0"
   stroke-width="6"
   d="m 436.99847,85.064 h -0.293 -0.292 l -0.292,-0.133 0.292,-0.134 v 0"
   fill="#000000"
   stroke-linecap="round"
   fill-opacity="0.0128444"
   opacity="0.954751"
   stroke-linejoin="round"
   id="path10734" /><path
   stroke="#a3c65b"
   stroke-width="3"
   d="m 851.88647,1.5 -0.039,142.312"
   fill="#000000"
   stroke-linecap="round"
   fill-opacity="0.0128444"
   opacity="0.954751"
   stroke-linejoin="round"
   id="path10736" /><g
   opacity="0.954751"
   id="g10746"
   transform="translate(-78.862531,-272.872)">
<path
   d="m 930.705,438.534 -0.028,147.383 -0.002,12.43 v 1.876"
   fill="#000000"
   fill-opacity="0.0128444"
   id="path10738" />
<g
   id="g10744">
<path
   stroke-linecap="round"
   stroke-width="3"
   stroke="#a3c65b"
   d="m 930.677,589.723 c 0,0.765 0,-3.806 0,-3.806 l 0.028,-147.383"
   fill="none"
   stroke-linejoin="round"
   id="path10740" />
<path
   d="m 930.677,587.098 -10.498,-7.877 10.496,21.002 10.504,-20.998 z"
   fill="#a3c65b"
   id="path10742" />
</g>
</g><g
   opacity="0.954751"
   id="g10756"
   transform="translate(-78.862531,-272.872)">
<path
   d="m 842.829,278.988 -0.031,142.133"
   fill="#000000"
   fill-opacity="0.0128444"
   id="path10748" />
<g
   id="g10754">
<path
   stroke-linecap="round"
   stroke-width="3"
   stroke="#a3c65b"
   d="m 842.827,289.497 c -0.003,13.149 -0.029,131.624 -0.029,131.624"
   fill="none"
   stroke-linejoin="round"
   id="path10750" />
<path
   d="m 842.826,292.122 10.498,7.877 -10.495,-21.002 -10.505,20.997 z"
   fill="#a3c65b"
   id="path10752" />
</g>
</g><path
   stroke="#a3c65b"
   stroke-width="3"
   d="m 763.93247,170.139 -0.022,155.85"
   fill="#000000"
   stroke-linecap="round"
   fill-opacity="0.0128444"
   opacity="0.954751"
   stroke-linejoin="round"
   id="path10758" /><path
   stroke="#a3c65b"
   stroke-width="3"
   d="m 786.54547,3.808 -0.03,143.154"
   fill="#000000"
   stroke-linecap="round"
   fill-opacity="0.0128444"
   opacity="0.954751"
   stroke-linejoin="round"
   id="path10760" /><g
   opacity="0.954751"
   id="g10770"
   transform="translate(-78.862531,-272.872)">
<path
   d="m 865.374,444.374 -0.021,155.085"
   fill="#000000"
   fill-opacity="0.0128444"
   id="path10762" />
<g
   id="g10768">
<path
   stroke-linecap="round"
   stroke-width="3"
   stroke="#a3c65b"
   d="m 865.355,588.956 c 10e-4,-14.133 0.019,-144.582 0.019,-144.582"
   fill="none"
   stroke-linejoin="round"
   id="path10764" />
<path
   d="m 865.355,586.331 -10.499,-7.877 10.497,21.002 10.503,-20.999 z"
   fill="#a3c65b"
   id="path10766" />
</g>
</g><g
   opacity="0.954751"
   id="g10780"
   transform="translate(-78.862531,-272.872)">
<path
   d="m 910.053,274.372 -0.039,143.501"
   fill="#000000"
   fill-opacity="0.0128444"
   id="path10772" />
<g
   id="g10778">
<path
   stroke-linecap="round"
   stroke-width="3"
   stroke="#a3c65b"
   d="m 910.05,284.875 c -0.003,13.254 -0.036,132.998 -0.036,132.998"
   fill="none"
   stroke-linejoin="round"
   id="path10774" />
<path
   d="m 910.05,287.5 10.498,7.878 -10.495,-21.003 -10.505,20.997 z"
   fill="#a3c65b"
   id="path10776" />
</g>
</g><path
   stroke="#a3c65b"
   stroke-width="3"
   d="m 831.14647,168.394 -0.027,155.896"
   fill="#000000"
   stroke-linecap="round"
   fill-opacity="0.0128444"
   opacity="0.954751"
   stroke-linejoin="round"
   id="path10782" /><path
   stroke="#a3c65b"
   stroke-width="3"
   d="m 670.91247,9.654 -0.014,67.012 -0.002,8.003"
   fill="#000000"
   stroke-linecap="round"
   fill-opacity="0.0128444"
   opacity="0.954751"
   stroke-linejoin="round"
   id="path10784" /><path
   stroke="#a3c65b"
   stroke-width="3"
   d="m 670.89447,96.862 -10e-4,4.767 -10e-4,1.03"
   fill="#000000"
   stroke-linecap="round"
   fill-opacity="0.0128444"
   opacity="0.954751"
   stroke-linejoin="round"
   id="path10786" /><path
   stroke="#a3c65b"
   stroke-width="3"
   d="m 670.89047,94.27 v 1.039 l -0.001,6.944 -0.033,228.906"
   fill="#000000"
   stroke-linecap="round"
   fill-opacity="0.0128444"
   opacity="0.954751"
   stroke-linejoin="round"
   id="path10788" /><path
   stroke="#d46767"
   stroke-width="3"
   d="m 659.27147,149.766 c -47.058,0 -38.055,-62.618 26.638,-61.926 40.007,0.428 55.28,31.985 36.329,49.751"
   fill="#000000"
   stroke-linecap="round"
   fill-opacity="0.0128444"
   opacity="0.954751"
   stroke-linejoin="round"
   id="path10790" /><path
   stroke="#d46767"
   stroke-width="3"
   d="m 712.27047,144.105 c -7.265,3.3 -16.807,5.315 -28.782,5.315"
   fill="#000000"
   stroke-linecap="round"
   fill-opacity="0.0128444"
   opacity="0.954751"
   stroke-linejoin="round"
   id="path10792" /><path
   stroke="#4da3c4"
   stroke-width="3"
   d="m 711.51047,106.176 c -12.8,10.379 5.831,37.333 12.8,41.514 40.381,24.229 167.096,23.179 168.48,-30.789 0.409,-15.945 -13.631,-26.367 -33.897,-32.611"
   fill="#000000"
   stroke-linecap="round"
   fill-opacity="0.0128444"
   opacity="0.954751"
   stroke-linejoin="round"
   id="path10794" /><path
   stroke="#4da3c4"
   stroke-width="3"
   d="m 846.56347,81.141 c -2.843,-0.596 -5.761,-1.129 -8.738,-1.601"
   fill="#000000"
   stroke-linecap="round"
   fill-opacity="0.0128444"
   opacity="0.954751"
   stroke-linejoin="round"
   id="path10796" /><path
   stroke="#4da3c4"
   stroke-width="3"
   d="m 825.93447,77.998 c -10.079,-1.036 -20.54,-1.47 -30.803,-1.396"
   fill="#000000"
   stroke-linecap="round"
   fill-opacity="0.0128444"
   opacity="0.954751"
   stroke-linejoin="round"
   id="path10798" /><path
   stroke="#4da3c4"
   stroke-width="3"
   d="m 782.92347,76.93 c -4.069,0.19 -8.066,0.457 -11.953,0.795"
   fill="#000000"
   stroke-linecap="round"
   fill-opacity="0.0128444"
   opacity="0.954751"
   stroke-linejoin="round"
   id="path10800" /><path
   stroke="#4da3c4"
   stroke-width="3"
   d="m 759.15447,79.016 c -15.858,2.109 -28.803,5.461 -35.536,9.516"
   fill="#000000"
   stroke-linecap="round"
   fill-opacity="0.0128444"
   opacity="0.954751"
   stroke-linejoin="round"
   id="path10802" /><g
   opacity="0.954751"
   id="g10812"
   transform="translate(-78.862531,-272.872)">
<path
   d="m 594.374,521.319 93.287,-0.77"
   fill="#000000"
   fill-opacity="0.0128444"
   id="path10804" />
<g
   id="g10810">
<path
   stroke-linecap="round"
   stroke-width="1.7"
   stroke="#000000"
   d="m 685.465,520.568 c -6.326,0.052 -91.091,0.751 -91.091,0.751"
   fill="none"
   stroke-linejoin="round"
   id="path10806" />
<path
   d="m 680.668,526.365 6.191,-5.151 0.799,-0.665 -0.81,-0.651 -6.275,-5.048 c -0.366,-0.294 -0.901,-0.237 -1.195,0.129 -0.294,0.366 -0.236,0.901 0.129,1.195 l 6.275,5.049 -0.01,-1.316 -6.191,5.151 c -0.361,0.301 -0.41,0.837 -0.11,1.197 0.3,0.361 0.836,0.41 1.197,0.11 z"
   fill="#000000"
   id="path10808" />
</g>
</g><path
   stroke="#000000"
   stroke-width="1.5"
   d="m 317.17347,72.581 c -16.797,1.26 -11.968,14.277 -15.143,32.142 -1.448,8.145 -12.362,10.269 -12.362,10.269 0,0 10.047,3.111 11.968,9.449 4.157,13.72 -4.409,37.792 13.227,37.582"
   fill="#000000"
   stroke-linecap="round"
   fill-opacity="0.0128444"
   opacity="0.954751"
   stroke-linejoin="round"
   id="path10814" />
<text
   xml:space="preserve"
   style="font-style:normal;font-weight:normal;font-size:40px;line-height:1.25;font-family:sans-serif;fill:#a3c65b;fill-opacity:1;stroke:none"
   x="71.705551"
   y="266.31134"
   id="text11384"><tspan
     sodipodi:role="line"
     id="tspan11382"
     x="71.705551"
     y="266.31134">$r$</tspan></text><text
   xml:space="preserve"
   style="font-style:normal;font-weight:normal;font-size:40px;line-height:1.25;font-family:sans-serif;clip-rule:evenodd;fill:#a3c65b;fill-opacity:1;fill-rule:evenodd;stroke:none;stroke-linecap:round;stroke-linejoin:round"
   x="390.88663"
   y="266.06525"
   id="text11384-3"><tspan
     sodipodi:role="line"
     id="tspan11382-1"
     x="390.88663"
     y="266.06525">$r$</tspan></text><text
   xml:space="preserve"
   style="font-style:normal;font-weight:normal;font-size:40px;line-height:1.25;font-family:sans-serif;clip-rule:evenodd;fill:#000000;fill-opacity:1;fill-rule:evenodd;stroke:none;stroke-linecap:round;stroke-linejoin:round"
   x="254.88927"
   y="126.23325"
   id="text11384-3-7"><tspan
     sodipodi:role="line"
     id="tspan11382-1-9"
     x="254.88927"
     y="126.23325">$r$</tspan></text><text
   xml:space="preserve"
   style="font-style:normal;font-weight:normal;font-size:40px;line-height:1.25;font-family:sans-serif;clip-rule:evenodd;fill:#a3c65b;fill-opacity:1;fill-rule:evenodd;stroke:none;stroke-linecap:round;stroke-linejoin:round"
   x="155.2684"
   y="56.06916"
   id="text11384-2"><tspan
     sodipodi:role="line"
     id="tspan11382-3"
     x="155.2684"
     y="56.06916">$0$</tspan></text><text
   xml:space="preserve"
   style="font-style:normal;font-weight:normal;font-size:40px;line-height:1.25;font-family:sans-serif;clip-rule:evenodd;fill:#d46767;fill-opacity:1;fill-rule:evenodd;stroke:none;stroke-linecap:round;stroke-linejoin:round"
   x="492.78629"
   y="181.88863"
   id="text11384-3-7-8"><tspan
     sodipodi:role="line"
     id="tspan11382-1-9-6"
     x="492.78629"
     y="181.88863">$r$</tspan></text><text
   xml:space="preserve"
   style="font-style:normal;font-weight:normal;font-size:40px;line-height:1.25;font-family:sans-serif;clip-rule:evenodd;fill:#4da3c4;fill-opacity:1;fill-rule:evenodd;stroke:none;stroke-linecap:round;stroke-linejoin:round"
   x="550.37256"
   y="69.655006"
   id="text11384-2-3"><tspan
     sodipodi:role="line"
     id="tspan11382-3-5"
     x="550.37256"
     y="69.655006">$0$</tspan></text><text
   xml:space="preserve"
   style="font-style:normal;font-weight:normal;font-size:40px;line-height:1.25;font-family:sans-serif;clip-rule:evenodd;fill:#a3c65b;fill-opacity:1;fill-rule:evenodd;stroke:none;stroke-linecap:round;stroke-linejoin:round"
   x="451.0181"
   y="46.972939"
   id="text11384-2-1"><tspan
     sodipodi:role="line"
     id="tspan11382-3-3"
     x="451.0181"
     y="46.972939">$0$</tspan></text><text
   xml:space="preserve"
   style="font-style:normal;font-weight:normal;font-size:40px;line-height:1.25;font-family:sans-serif;clip-rule:evenodd;fill:#d46767;fill-opacity:1;fill-rule:evenodd;stroke:none;stroke-linecap:round;stroke-linejoin:round"
   x="621.58734"
   y="175.47838"
   id="text11384-3-7-8-6"><tspan
     sodipodi:role="line"
     id="tspan11382-1-9-6-8"
     x="621.58734"
     y="175.47838">$r$</tspan></text><text
   xml:space="preserve"
   style="font-style:normal;font-weight:normal;font-size:40px;line-height:1.25;font-family:sans-serif;clip-rule:evenodd;fill:#4da3c4;fill-opacity:1;fill-rule:evenodd;stroke:none;stroke-linecap:round;stroke-linejoin:round"
   x="863.33374"
   y="74.628273"
   id="text11384-2-3-0"><tspan
     sodipodi:role="line"
     id="tspan11382-3-5-8"
     x="863.33374"
     y="74.628273">$0$</tspan></text><text
   xml:space="preserve"
   style="font-style:normal;font-weight:normal;font-size:40px;line-height:1.25;font-family:sans-serif;clip-rule:evenodd;fill:#a3c65b;fill-opacity:1;fill-rule:evenodd;stroke:none;stroke-linecap:round;stroke-linejoin:round"
   x="682.31708"
   y="59.543556"
   id="text11384-2-1-8"><tspan
     sodipodi:role="line"
     id="tspan11382-3-3-9"
     x="682.31708"
     y="59.543556">$0$</tspan></text><text
   xml:space="preserve"
   style="font-style:normal;font-weight:normal;font-size:40px;line-height:1.25;font-family:sans-serif;clip-rule:evenodd;fill:#000000;fill-opacity:1;fill-rule:evenodd;stroke:none;stroke-linecap:round;stroke-linejoin:round"
   x="151.84802"
   y="285.41321"
   id="text11384-3-7-5"><tspan
     sodipodi:role="line"
     id="tspan11382-1-9-2"
     x="151.84802"
     y="285.41321">$\text{cancelling pair}$</tspan></text><text
   xml:space="preserve"
   style="font-style:normal;font-weight:normal;font-size:40px;line-height:1.25;font-family:sans-serif;clip-rule:evenodd;fill:#000000;fill-opacity:1;fill-rule:evenodd;stroke:none;stroke-linecap:round;stroke-linejoin:round"
   x="526.43896"
   y="285.72302"
   id="text11384-3-7-5-2"><tspan
     sodipodi:role="line"
     id="tspan11382-1-9-2-7"
     x="526.43896"
     y="285.72302">$\text{slides}$</tspan></text></svg>
